<svg width="960" height="540" viewBox="0 0 960 540" fill="none" xmlns="http://www.w3.org/2000/svg">
  <rect width="960" height="540" rx="40" fill="url(#bg)"/>
  <circle cx="780" cy="120" r="100" fill="#A7F3D0" fill-opacity=".16"/>
  <rect x="124" y="110" width="712" height="320" rx="32" fill="#F8FAFC" fill-opacity=".94"/>
  <rect x="170" y="312" width="84" height="74" rx="18" fill="#BBF7D0"/>
  <rect x="276" y="266" width="84" height="120" rx="18" fill="#86EFAC"/>
  <rect x="382" y="226" width="84" height="160" rx="18" fill="#4ADE80"/>
  <rect x="488" y="182" width="84" height="204" rx="18" fill="#22C55E"/>
  <rect x="594" y="144" width="84" height="242" rx="18" fill="#16A34A"/>
  <path d="M188 208C252 216 304 174 352 178C400 182 434 224 500 218C566 212 602 150 674 146" stroke="#065F46" stroke-width="18" stroke-linecap="round"/>
  <circle cx="690" cy="144" r="30" fill="#ECFCCB"/>
  <defs>
    <linearGradient id="bg" x1="92" y1="40" x2="916" y2="490" gradientUnits="userSpaceOnUse">
      <stop stop-color="#064E3B"/>
      <stop offset=".62" stop-color="#059669"/>
      <stop offset="1" stop-color="#34D399"/>
    </linearGradient>
  </defs>
</svg>
