<svg width="6" height="10" viewBox="0 0 6 10" fill="none" xmlns="http://www.w3.org/2000/svg">
<path d="M5.99279 4.66503C5.98254 4.62138 5.96168 4.58092 5.93208 4.54725C5.90247 4.51358 5.86501 4.48773 5.82303 4.47198L3.85836 3.73524L4.35834 1.23539C4.36997 1.1772 4.36232 1.11681 4.33652 1.06337C4.31073 1.00993 4.26822 0.966359 4.21543 0.939267C4.16263 0.912175 4.10245 0.903039 4.04399 0.913244C3.98554 0.92345 3.93201 0.95244 3.89152 0.995818L0.0733498 5.08672C0.0427556 5.1195 0.0207151 5.15931 0.00917978 5.20264C-0.00235556 5.24597 -0.00302996 5.29148 0.00721635 5.33513C0.0174626 5.37878 0.0383136 5.41923 0.0679231 5.4529C0.0975325 5.48657 0.134987 5.51242 0.176971 5.52817L2.14164 6.26491L1.64166 8.76476C1.63002 8.82295 1.63767 8.88335 1.66346 8.93679C1.68925 8.99024 1.73177 9.03381 1.78457 9.0609C1.83736 9.088 1.89755 9.09713 1.95601 9.08692C2.01446 9.07672 2.06799 9.04772 2.10848 9.00433L5.92665 4.91343C5.95724 4.88065 5.97928 4.84084 5.99082 4.79751C6.00235 4.75418 6.00303 4.70868 5.99279 4.66503Z" fill="white"/>
</svg>
