<svg width="960" height="540" viewBox="0 0 960 540" fill="none" xmlns="http://www.w3.org/2000/svg">
  <rect width="960" height="540" rx="40" fill="url(#bg)"/>
  <circle cx="771" cy="122" r="110" fill="#34D399" fill-opacity=".18"/>
  <circle cx="151" cy="430" r="140" fill="#FDE68A" fill-opacity=".12"/>
  <rect x="122" y="116" width="716" height="308" rx="28" fill="#F8FAFC" fill-opacity=".92"/>
  <rect x="160" y="162" width="212" height="184" rx="22" fill="#DCFCE7"/>
  <rect x="392" y="162" width="184" height="76" rx="18" fill="#BBF7D0"/>
  <rect x="392" y="252" width="184" height="94" rx="18" fill="#ECFCCB"/>
  <rect x="596" y="162" width="204" height="184" rx="22" fill="#D1FAE5"/>
  <path d="M200 318C226 272 252 246 278 240C304 234 330 248 356 282" stroke="#16A34A" stroke-width="16" stroke-linecap="round"/>
  <path d="M430 217H536" stroke="#15803D" stroke-width="16" stroke-linecap="round"/>
  <path d="M430 286H536" stroke="#65A30D" stroke-width="16" stroke-linecap="round"/>
  <path d="M430 317H507" stroke="#65A30D" stroke-width="16" stroke-linecap="round"/>
  <path d="M640 313C664 283 688 255 712 255C736 255 760 283 784 313" stroke="#059669" stroke-width="16" stroke-linecap="round"/>
  <circle cx="692" cy="210" r="26" fill="#10B981"/>
  <defs>
    <linearGradient id="bg" x1="56" y1="24" x2="910" y2="524" gradientUnits="userSpaceOnUse">
      <stop stop-color="#0F766E"/>
      <stop offset=".55" stop-color="#16A34A"/>
      <stop offset="1" stop-color="#84CC16"/>
    </linearGradient>
  </defs>
</svg>
